<svg xmlns="http://www.w3.org/2000/svg" viewBox="0 0 512 512">
  <defs>
    <linearGradient id="bg" x1="0%" y1="0%" x2="100%" y2="100%">
      <stop offset="0%" style="stop-color:#1a73e8"/>
      <stop offset="100%" style="stop-color:#0d47a1"/>
    </linearGradient>
    <linearGradient id="folder1" x1="0%" y1="0%" x2="100%" y2="100%">
      <stop offset="0%" style="stop-color:#e5c07b"/>
      <stop offset="100%" style="stop-color:#d4a84a"/>
    </linearGradient>
    <linearGradient id="folder2" x1="0%" y1="0%" x2="100%" y2="100%">
      <stop offset="0%" style="stop-color:#4ec9b0"/>
      <stop offset="100%" style="stop-color:#2ea88a"/>
    </linearGradient>
  </defs>
  <!-- Background rounded square -->
  <rect width="512" height="512" rx="90" fill="url(#bg)"/>
  <!-- Left folder -->
  <g transform="translate(40, 100)">
    <path d="M20,40 L20,10 Q20,0 30,0 L90,0 L110,25 L200,25 Q210,25 210,35 L210,180 Q210,190 200,190 L30,190 Q20,190 20,180 Z" fill="url(#folder1)" opacity="0.95"/>
    <!-- Lines on folder -->
    <rect x="50" y="70" width="120" height="8" rx="4" fill="rgba(0,0,0,0.15)"/>
    <rect x="50" y="95" width="90" height="8" rx="4" fill="rgba(0,0,0,0.15)"/>
    <rect x="50" y="120" width="105" height="8" rx="4" fill="rgba(0,0,0,0.15)"/>
    <rect x="50" y="145" width="70" height="8" rx="4" fill="rgba(0,0,0,0.15)"/>
  </g>
  <!-- Right folder -->
  <g transform="translate(262, 130)">
    <path d="M20,40 L20,10 Q20,0 30,0 L90,0 L110,25 L200,25 Q210,25 210,35 L210,180 Q210,190 200,190 L30,190 Q20,190 20,180 Z" fill="url(#folder2)" opacity="0.95"/>
    <!-- Lines on folder -->
    <rect x="50" y="70" width="120" height="8" rx="4" fill="rgba(0,0,0,0.15)"/>
    <rect x="50" y="95" width="90" height="8" rx="4" fill="rgba(0,0,0,0.15)"/>
    <rect x="50" y="120" width="105" height="8" rx="4" fill="rgba(0,0,0,0.15)"/>
    <rect x="50" y="145" width="70" height="8" rx="4" fill="rgba(0,0,0,0.15)"/>
  </g>
  <!-- Compare arrows (center) -->
  <g transform="translate(206, 215)">
    <!-- Circle background -->
    <circle cx="50" cy="45" r="42" fill="white" opacity="0.95"/>
    <!-- Right arrow -->
    <path d="M30,30 L65,30 L55,18 L63,18 L78,33 L63,48 L55,48 L65,36 L30,36 Z" fill="#0d47a1"/>
    <!-- Left arrow -->
    <path d="M70,52 L35,52 L45,40 L37,40 L22,55 L37,70 L45,70 L35,58 L70,58 Z" fill="#0d47a1"/>
  </g>
</svg>
